<?xml version="1.0"?>
<svg xmlns="http://www.w3.org/2000/svg" viewBox="0 0 64 64" width="512px" height="512px"><g><g id="outline"><path d="M32,2A30,30,0,1,0,62,32,30.034,30.034,0,0,0,32,2ZM4,32A28.022,28.022,0,0,1,19,7.212V9a1,1,0,0,0,.553.895l2,1A1,1,0,0,0,22,11h3a1,1,0,0,0,.707-.293l1.564-1.562,2.087.7,1.355,2.033-2.42,2.42a1,1,0,0,0-.241,1.023l1,3A1,1,0,0,0,30,19h2.323l1.088,2.722-4.247-.708a1,1,0,0,0-.48.038l-2.413.8-1.4-1.395-.926-2.776a1,1,0,0,0-1.5-.516l-3,2A1,1,0,0,0,19,20v3a1,1,0,0,0,.553.895l.987.493-.948,1.422-2.276-.758a.991.991,0,0,0-.632,0l-3,1A1,1,0,0,0,13,27v2a1,1,0,0,0,.293.707l1,1a1,1,0,0,0,.391.241l2.525.843.568,1.7L15,34.882,11.447,33.1a1,1,0,0,0-1.279.34L8.657,35.711,7.447,35.1a1.007,1.007,0,0,0-1.072.114L4.417,36.785A28.056,28.056,0,0,1,4,32ZM41.685,58.271l-.426-.426,2.6-4.33a1,1,0,0,0-.025-1.07l-2-3a1.018,1.018,0,0,0-.385-.34L38,47.382v-4.7l4.371-1.748a1.01,1.01,0,0,0,.336-.222l2-2a1,1,0,0,0,0-1.414L43.612,36.2l3.547-2.128,3.492.873,3.9,1.952a.989.989,0,0,0,.323.1l4.567.571A28.1,28.1,0,0,1,41.685,58.271ZM60,32a28.14,28.14,0,0,1-.238,3.588l-4.468-.559L51.447,33.1a1.047,1.047,0,0,0-.205-.075l-4-1a.99.99,0,0,0-.757.113l-5,3a1,1,0,0,0-.192,1.564L42.586,38l-1.148,1.147-4.809,1.924A1,1,0,0,0,36,42v6a1,1,0,0,0,.553.9l3.762,1.88,1.5,2.253-2.674,4.457a1,1,0,0,0,.15,1.222l.252.252A27.983,27.983,0,0,1,4.88,38.977l2.245-1.8,1.428.714a1,1,0,0,0,1.279-.34l1.511-2.266,3.21,1.606a1,1,0,0,0,.894,0l4-2a1,1,0,0,0,.5-1.211l-1-3a.99.99,0,0,0-.632-.632l-2.776-.926-.54-.54v-.865l2-.667,2.684.894a1,1,0,0,0,1.148-.393l2-3a1,1,0,0,0-.385-1.45L21,22.382V20.535l1.466-.976.586,1.757a1,1,0,0,0,.241.391l2,2a.994.994,0,0,0,1.023.241l2.765-.921,5.755.959a1,1,0,0,0,1.093-1.357l-2-5A1,1,0,0,0,33,17H30.721l-.576-1.729,2.562-2.564a1,1,0,0,0,.125-1.262l-2-3a1,1,0,0,0-.516-.393l-3-1a1,1,0,0,0-1.023.241L24.586,9h-2.35L21,8.382V6.254a27.945,27.945,0,0,1,20.96-.417L39.323,8.265a1,1,0,0,0,.361,1.683l1.486.5-2.089,2.14a1,1,0,0,0-.262.488l-.8,3.718a1.007,1.007,0,0,0,.146.765l2,3a1,1,0,0,0,.125.152l3,3a1,1,0,0,0,1.154.188l3.694-1.847,3.634.727-.745,2.983a1,1,0,0,0,.263.949l3,3a1,1,0,0,0,1.414,0l1.327-1.327,2.942,2.667C59.987,31.364,60,31.68,60,32Zm-2.328-5.741a1,1,0,0,0-1.379.034L55,27.586l-1.893-1.893.863-3.451A1,1,0,0,0,53.2,21.02l-5-1a1.017,1.017,0,0,0-.643.085L44.2,21.783l-2.42-2.42L40.066,16.8l.648-3.023,3-3.076a1,1,0,0,0-.4-1.646l-1.391-.464L43.978,6.7A28.073,28.073,0,0,1,59.725,28.119Z" data-original="#000000" class="active-path" data-old_color="#000000" fill="#000000"/><path d="M32.107,41.307l2.6-2.6a1,1,0,0,0,.188-1.154l-2-4A1,1,0,0,0,32,33H28a1,1,0,0,0-.832.445L25.465,36H24a1.006,1.006,0,0,0-.555.168l-3,2a1,1,0,0,0-.277,1.387l2,3a1.014,1.014,0,0,0,.277.277L25,44.535V47a1,1,0,0,0,.758.97l4,1a1,1,0,0,0,1.074-.415l2-3a1,1,0,0,0,.138-.8Zm-2.548,5.552L27,46.219V44a1,1,0,0,0-.445-.832l-2.834-1.889-1.334-2L24.3,38H26a1,1,0,0,0,.832-.445L28.535,35h2.847l1.4,2.8-2.49,2.49a1,1,0,0,0-.263.949l.893,3.571Z" data-original="#000000" class="active-path" data-old_color="#000000" fill="#000000"/><path d="M17.7,42.715l1.008-1.008-1.414-1.414L16.285,41.3A2.746,2.746,0,0,0,16,41.184V40H14v1.184a2.746,2.746,0,0,0-.285.117l-1.008-1.008-1.414,1.414L12.3,42.715a2.746,2.746,0,0,0-.117.285H11v2h1.184a2.746,2.746,0,0,0,.117.285l-1.008,1.008,1.414,1.414L13.715,46.7a2.746,2.746,0,0,0,.285.117V48h2V46.816a2.746,2.746,0,0,0,.285-.117l1.008,1.008,1.414-1.414L17.7,45.285A2.746,2.746,0,0,0,17.816,45H19V43H17.816A2.746,2.746,0,0,0,17.7,42.715ZM15,45a1,1,0,1,1,1-1A1,1,0,0,1,15,45Z" data-original="#000000" class="active-path" data-old_color="#000000" fill="#000000"/><path d="M51.7,42.715l1.008-1.008-1.414-1.414L50.285,41.3A2.746,2.746,0,0,0,50,41.184V40H48v1.184a2.746,2.746,0,0,0-.285.117l-1.008-1.008-1.414,1.414L46.3,42.715a2.746,2.746,0,0,0-.117.285H45v2h1.184a2.746,2.746,0,0,0,.117.285l-1.008,1.008,1.414,1.414L47.715,46.7a2.746,2.746,0,0,0,.285.117V48h2V46.816a2.746,2.746,0,0,0,.285-.117l1.008,1.008,1.414-1.414L51.7,45.285A2.746,2.746,0,0,0,51.816,45H53V43H51.816A2.746,2.746,0,0,0,51.7,42.715ZM49,45a1,1,0,1,1,1-1A1,1,0,0,1,49,45Z" data-original="#000000" class="active-path" data-old_color="#000000" fill="#000000"/><path d="M41.7,27.715l1.008-1.008-1.414-1.414L40.285,26.3A2.746,2.746,0,0,0,40,26.184V25H38v1.184a2.746,2.746,0,0,0-.285.117l-1.008-1.008-1.414,1.414L36.3,27.715a2.746,2.746,0,0,0-.117.285H35v2h1.184a2.746,2.746,0,0,0,.117.285l-1.008,1.008,1.414,1.414L37.715,31.7a2.746,2.746,0,0,0,.285.117V33h2V31.816a2.746,2.746,0,0,0,.285-.117l1.008,1.008,1.414-1.414L41.7,30.285A2.746,2.746,0,0,0,41.816,30H43V28H41.816A2.746,2.746,0,0,0,41.7,27.715ZM39,30a1,1,0,1,1,1-1A1,1,0,0,1,39,30Z" data-original="#000000" class="active-path" data-old_color="#000000" fill="#000000"/><path d="M10.3,21.285,9.293,22.293l1.414,1.414L11.715,22.7a2.746,2.746,0,0,0,.285.117V24h2V22.816a2.746,2.746,0,0,0,.285-.117l1.008,1.008,1.414-1.414L15.7,21.285A2.746,2.746,0,0,0,15.816,21H17V19H15.816a2.746,2.746,0,0,0-.117-.285l1.008-1.008-1.414-1.414L14.285,17.3A2.746,2.746,0,0,0,14,17.184V16H12v1.184a2.746,2.746,0,0,0-.285.117l-1.008-1.008L9.293,17.707,10.3,18.715a2.746,2.746,0,0,0-.117.285H9v2h1.184A2.746,2.746,0,0,0,10.3,21.285ZM13,19a1,1,0,1,1-1,1A1,1,0,0,1,13,19Z" data-original="#000000" class="active-path" data-old_color="#000000" fill="#000000"/><rect x="46" y="13" width="2" height="2" data-original="#000000" class="active-path" data-old_color="#000000" fill="#000000"/><rect x="50" y="16" width="2" height="2" data-original="#000000" class="active-path" data-old_color="#000000" fill="#000000"/><rect x="18" y="12" width="2" height="2" data-original="#000000" class="active-path" data-old_color="#000000" fill="#000000"/><rect x="6" y="26" width="2" height="2" data-original="#000000" class="active-path" data-old_color="#000000" fill="#000000"/><rect x="9" y="29" width="2" height="2" data-original="#000000" class="active-path" data-old_color="#000000" fill="#000000"/><rect x="34" y="56" width="2" height="2" data-original="#000000" class="active-path" data-old_color="#000000" fill="#000000"/><rect x="30" y="56" width="2" height="2" data-original="#000000" class="active-path" data-old_color="#000000" fill="#000000"/></g></g> </svg>
