<svg xmlns="http://www.w3.org/2000/svg" viewBox="0 0 40.99 39.63"><defs><style>.cls-1{fill: currentColor;}</style></defs><title>network_n</title><g id="Layer_2" data-name="Layer 2"><g id="Layer_1-2" data-name="Layer 1"><path class="cls-1" d="M37.4,18.15A3.59,3.59,0,0,0,33.89,21l-7.13-.75a6.57,6.57,0,0,0,.16-1.42,6.5,6.5,0,0,0-1.62-4.28l5.94-6.92a3.61,3.61,0,1,0-1.1-.79l-5.83,6.79a6.46,6.46,0,0,0-7.88,0L11.14,5.75a3.49,3.49,0,0,0,.75-2.16,3.63,3.63,0,1,0-1.76,3.07l5.31,7.94a6.51,6.51,0,0,0-1,6.8L6.49,24.89a3.55,3.55,0,0,0-2.9-1.5,3.65,3.65,0,1,0,3.47,2.72l8-3.53a6.5,6.5,0,0,0,5.32,2.76,5.93,5.93,0,0,0,.84-.06l2.11,7.29a3.61,3.61,0,1,0,1.38-.06L22.55,25a6.58,6.58,0,0,0,3.76-3.41l7.56.79a3.59,3.59,0,1,0,3.53-4.2ZM3.59,29.21A2.24,2.24,0,1,1,5.83,27,2.23,2.23,0,0,1,3.59,29.21ZM26.45,36a2.24,2.24,0,1,1-2.24-2.24A2.24,2.24,0,0,1,26.45,36ZM32.74,2.13A2.24,2.24,0,1,1,30.5,4.37,2.24,2.24,0,0,1,32.74,2.13ZM6.06,3.59A2.24,2.24,0,1,1,8.3,5.83,2.24,2.24,0,0,1,6.06,3.59ZM20.4,24a5.17,5.17,0,1,1,5.17-5.17A5.18,5.18,0,0,1,20.4,24Zm17,0a2.24,2.24,0,1,1,2.24-2.23A2.24,2.24,0,0,1,37.4,24Z"/></g></g></svg>
